<?xml version="1.0" encoding="UTF-8"?>
<svg version="1.1" xmlns="http://www.w3.org/2000/svg" width="512" height="512">
<path d="M0 0 C2.70251087 2.48897417 5.36300897 5.01955942 8.00952148 7.56787109 C8.53320312 8.06963867 9.05688477 8.57140625 9.59643555 9.08837891 C25.59324012 24.49087495 39.07522469 42.45581011 50.00073242 61.78515625 C50.98070989 63.51695573 51.98308875 65.23601897 52.98608398 66.95458984 C84.21719615 121.741108 89.56796761 189.89333179 73.29077148 250.12255859 C61.83645274 290.23370785 40.8502302 325.61576705 12.00952148 355.56787109 C11.50775391 356.09155273 11.00598633 356.61523438 10.48901367 357.15478516 C-4.91348237 373.15158973 -22.87841753 386.6335743 -42.20776367 397.55908203 C-43.93956316 398.5390595 -45.65862639 399.54143836 -47.37719727 400.54443359 C-102.12107081 431.74130371 -170.35137865 437.11325277 -230.54125977 420.84912109 C-270.65385491 409.40039298 -306.03894107 388.40803423 -335.99047852 359.56787109 C-336.51416016 359.06610352 -337.0378418 358.56433594 -337.57739258 358.04736328 C-353.57419715 342.64486723 -367.05618172 324.67993208 -377.98168945 305.35058594 C-378.96166692 303.61878645 -379.96404579 301.89972322 -380.96704102 300.18115234 C-412.16848757 245.44667445 -417.65690386 177.11222908 -401.23657227 116.94287109 C-389.71364167 76.87280922 -368.83450042 41.523416 -339.99047852 11.56787109 C-339.48871094 11.04418945 -338.98694336 10.52050781 -338.4699707 9.98095703 C-323.06747466 -6.01584754 -305.1025395 -19.49783211 -285.77319336 -30.42333984 C-284.04139387 -31.40331731 -282.32233064 -32.40569618 -280.60375977 -33.40869141 C-195.61531293 -81.85644471 -85.46274715 -68.25148766 0 0 Z M-284.49047852 65.69287109 C-301.13431889 82.38096393 -311.93058172 102.78341199 -318.74047852 125.19287109 C-319.0386145 126.15833862 -319.0386145 126.15833862 -319.34277344 127.14331055 C-322.67151084 138.61910778 -323.39897864 150.23640941 -323.36547852 162.13037109 C-323.36526703 162.8283078 -323.36505554 163.52624451 -323.36483765 164.24533081 C-323.32927613 176.0566422 -322.23277332 187.17854463 -318.99047852 198.56787109 C-318.80855957 199.2347998 -318.62664062 199.90172852 -318.43920898 200.58886719 C-312.97988352 220.16730605 -302.19711311 238.27975604 -288.99047852 253.56787109 C-288.07782227 254.66421875 -288.07782227 254.66421875 -287.14672852 255.78271484 C-283.12955285 260.53941603 -278.84828809 264.67544498 -273.99047852 268.56787109 C-273.49080566 268.96876953 -272.99113281 269.36966797 -272.47631836 269.78271484 C-252.40881524 285.68103644 -229.32310202 295.69674892 -203.99047852 299.56787109 C-202.74911133 299.76316406 -202.74911133 299.76316406 -201.48266602 299.96240234 C-170.2327535 303.93484885 -137.40053888 296.14900263 -111.21655273 278.85620117 C-105.29460415 274.95825791 -105.29460415 274.95825791 -101.99047852 274.56787109 C-99.83322062 276.31741029 -98.05565579 277.98931354 -96.17797852 280.00537109 C-95.68233398 280.51519531 -95.18668945 281.02501953 -94.67602539 281.55029297 C-91.88841223 284.44553598 -89.22023659 287.43294602 -86.58422852 290.46630859 C-82.9321404 294.66804376 -79.13433813 298.71739324 -75.30297852 302.75537109 C-73.89366918 304.24712871 -72.48481946 305.73932067 -71.07641602 307.23193359 C-70.38644531 307.9631543 -69.69647461 308.694375 -68.9855957 309.44775391 C-66.11812228 312.49488303 -63.26786216 315.55753003 -60.42797852 318.63037109 C-59.69647583 319.42048584 -59.69647583 319.42048584 -58.95019531 320.2265625 C-56.26695716 323.1380921 -53.66849052 326.10457909 -51.11547852 329.13037109 C-46.456442 334.48882713 -41.07014704 338.0286884 -33.89282227 338.79052734 C-26.45450055 339.08397743 -19.98375547 337.24669275 -14.37329102 332.14208984 C-9.56113108 326.66383998 -7.10553077 320.816163 -6.99047852 313.56787109 C-8.55726004 302.60040039 -14.84124935 296.24343144 -23.33349609 289.79296875 C-24.592323 288.84954347 -25.85317027 287.90880832 -27.1159668 286.97070312 C-30.09391529 284.74208994 -33.00911325 282.4354795 -35.92797852 280.13037109 C-36.50225586 279.67936035 -37.0765332 279.22834961 -37.66821289 278.76367188 C-42.5908172 274.89649802 -47.47678898 270.98433077 -52.3605957 267.06835938 C-56.78282672 263.52572005 -61.22282737 260.00651836 -65.67797852 256.50537109 C-66.25418945 256.05226563 -66.83040039 255.59916016 -67.42407227 255.13232422 C-70.25550975 252.91099409 -73.10046354 250.71252941 -75.99047852 248.56787109 C-74.59434872 245.54047384 -72.87292573 242.82092339 -71.02099609 240.05322266 C-58.82787579 221.74164456 -51.28371421 202.31797251 -47.99047852 180.56787109 C-47.79325195 179.39804687 -47.79325195 179.39804687 -47.59204102 178.20458984 C-42.81481316 144.95766626 -53.02732002 108.30424408 -72.99047852 81.56787109 C-75.58040425 78.16610326 -78.24534975 74.84538847 -80.99047852 71.56787109 C-81.57700195 70.85759766 -82.16352539 70.14732422 -82.76782227 69.41552734 C-86.80895161 64.64131331 -91.15043952 60.52273517 -95.99047852 56.56787109 C-96.90313477 55.80603516 -97.81579102 55.04419922 -98.75610352 54.25927734 C-154.78167198 9.14321027 -233.88870056 16.26649463 -284.49047852 65.69287109 Z " fill="#F6A12B" transform="translate(419.990478515625,72.43212890625)"/>
<path d="M0 0 C22.47389172 18.2806214 37.04701559 43.48141312 40.53393555 72.43945312 C42.99012133 104.26608575 33.81640404 133.00752105 13.2487793 157.40820312 C-6.18098251 178.60833047 -33.46243538 190.59383516 -61.9465332 192.25195312 C-91.93212038 192.96731505 -119.90024295 182.44105159 -141.78027344 161.84033203 C-161.53694765 142.58378697 -173.0676614 116.63031874 -173.48120117 89.02001953 C-173.54888364 76.17520798 -173.20700402 64.29127661 -169.1887207 52.03320312 C-168.87523682 51.06519775 -168.87523682 51.06519775 -168.55541992 50.07763672 C-159.09232245 21.92935202 -138.47320985 0.27693155 -112.20239258 -12.96826172 C-107.96464961 -14.97113659 -103.64837652 -16.53694846 -99.1887207 -17.96679688 C-98.23304199 -18.27786377 -98.23304199 -18.27786377 -97.25805664 -18.59521484 C-64.53739857 -28.78517852 -26.71736602 -21.01771475 0 0 Z M-124.1887207 22.03320312 C-124.86161133 22.60554688 -125.53450195 23.17789063 -126.2277832 23.76757812 C-141.22346033 37.59920726 -150.50205555 59.09465234 -151.5324707 79.28710938 C-152.22881843 104.14067776 -144.57094707 125.53410409 -127.4465332 143.73242188 C-126.70145508 144.49167969 -125.95637695 145.2509375 -125.1887207 146.03320312 C-124.52614258 146.72027344 -123.86356445 147.40734375 -123.1809082 148.11523438 C-108.09131581 162.65976545 -86.86085935 169.64623265 -66.1887207 170.03320312 C-45.61823625 169.65009146 -26.95211348 162.24120215 -11.1887207 149.03320312 C-10.37016602 148.40542969 -9.55161133 147.77765625 -8.70825195 147.13085938 C5.5798674 135.23516931 15.20465816 115.16733494 17.8112793 97.03320312 C19.77579297 71.39478183 14.54658004 48.99757859 -2.1887207 29.03320312 C-16.36554876 12.64045878 -36.8045252 1.49803379 -58.57299805 -0.14697266 C-83.63525723 -1.47809208 -105.17110947 5.57670286 -124.1887207 22.03320312 Z " fill="#F8AD23" transform="translate(301.188720703125,149.966796875)"/>
<path d="M0 0 C24.71360242 22.02894025 43.03137301 51.60319194 45.625 85.33984375 C47.50447199 121.69929279 38.99938937 155.54448745 14.625 183.33984375 C13.95210937 184.15710938 13.27921875 184.974375 12.5859375 185.81640625 C2.59701043 197.60109549 -9.7773716 206.22519221 -23.375 213.33984375 C-24.22320312 213.8090625 -25.07140625 214.27828125 -25.9453125 214.76171875 C-53.60717606 229.55122996 -88.72500182 231.43233516 -118.546875 222.8984375 C-139.3805081 216.57167677 -156.54428468 206.29107489 -172.375 191.33984375 C-173.59316406 190.23576172 -173.59316406 190.23576172 -174.8359375 189.109375 C-186.66867191 177.96719449 -194.77499675 164.05933151 -201.375 149.33984375 C-202.09816406 147.74269531 -202.09816406 147.74269531 -202.8359375 146.11328125 C-215.83052299 115.00503114 -213.78218029 79.1649045 -201.375 48.33984375 C-188.30308783 17.17044489 -162.45151021 -7.63998637 -131.375 -20.66015625 C-87.32963191 -38.04367925 -36.4596433 -30.28309189 0 0 Z M-156.375 8.33984375 C-157.17035156 9.0153125 -157.96570313 9.69078125 -158.78515625 10.38671875 C-181.15384901 29.88585741 -196.25884336 56.51377302 -199.375 86.33984375 C-201.14346819 119.09237374 -193.36284848 150.33955666 -171.375 175.33984375 C-149.80412771 199.30010497 -122.5653206 213.08978069 -90.25 216.15234375 C-59.40934004 217.70407507 -29.55404788 207.66554379 -6.375 187.33984375 C-5.56804687 186.68886719 -4.76109375 186.03789062 -3.9296875 185.3671875 C17.12213908 167.80143509 30.55316768 140.37901556 33.625 113.33984375 C35.75654444 80.35359474 28.99781001 49.6081221 7.125 24.08984375 C-14.02409806 0.82583589 -41.24139283 -15.82594689 -73.23681641 -17.84033203 C-103.43881699 -19.18317795 -133.14911992 -11.85657371 -156.375 8.33984375 Z " fill="#F8AC24" transform="translate(317.375,135.66015625)"/>
<path d="M0 0 C11.30284324 8.28336941 19.01966503 20.27083936 22 34 C22.24438773 37.37181017 22.23111839 40.7451918 22.25 44.125 C22.270625 45.02476562 22.29125 45.92453125 22.3125 46.8515625 C22.39813766 61.75251509 16.08842373 73.813973 5.828125 84.296875 C-6.40259472 95.98701042 -20.40461166 98.50401888 -36.70703125 98.27734375 C-49.85971515 97.8116595 -61.30920899 91.20849807 -70.828125 82.3984375 C-77.07648883 75.49826593 -81.85309801 67.08441172 -84 58 C-84.18046875 57.2575 -84.3609375 56.515 -84.546875 55.75 C-86.41128343 44.43496953 -85.26814643 33.6183155 -81 23 C-80.72285156 22.26523438 -80.44570312 21.53046875 -80.16015625 20.7734375 C-74.89367906 8.59015848 -62.98969738 -1.0057686 -51 -6 C-33.92047169 -12.70311158 -15.34029103 -9.37234359 0 0 Z M-34.75 9.0625 C-36.63418409 11.98298534 -36.19163343 14.61447605 -36 18 C-36.72445312 18.02578125 -37.44890625 18.0515625 -38.1953125 18.078125 C-45.86367198 18.52800209 -50.08924312 19.78284766 -55.375 25.625 C-57.57907893 30.20270239 -57.7971639 34.00552411 -57 39 C-54.65970629 43.86061002 -51.83436 46.62676873 -47 49 C-43.30509971 49.60647329 -39.75287237 49.81693306 -36 50 C-36 53.63 -36 57.26 -36 61 C-37.26457031 60.97679687 -38.52914062 60.95359375 -39.83203125 60.9296875 C-41.4921816 60.91092874 -43.15233833 60.89272865 -44.8125 60.875 C-45.64587891 60.85824219 -46.47925781 60.84148437 -47.33789062 60.82421875 C-48.14033203 60.81777344 -48.94277344 60.81132812 -49.76953125 60.8046875 C-50.50792236 60.79421387 -51.24631348 60.78374023 -52.00708008 60.77294922 C-54.31890676 60.88258521 -54.31890676 60.88258521 -57 63 C-57.5 66 -57.5 66 -57 69 C-53.89914429 71.06723714 -53.27068319 71.24497423 -49.76953125 71.1953125 C-48.56586914 71.18564453 -48.56586914 71.18564453 -47.33789062 71.17578125 C-46.50451172 71.15902344 -45.67113281 71.14226562 -44.8125 71.125 C-43.96751953 71.11597656 -43.12253906 71.10695313 -42.25195312 71.09765625 C-40.16784757 71.07410703 -38.08388783 71.03823647 -36 71 C-36.06510417 73.01822917 -36.13020833 75.03645833 -36.1953125 77.0546875 C-36.18331689 79.23863645 -36.18331689 79.23863645 -34 81 C-31.54290625 81.58350505 -31.54290625 81.58350505 -29 81 C-26.27491491 77.71110421 -25.63853209 75.21712557 -26 71 C-24.845 71.0825 -23.69 71.165 -22.5 71.25 C-17.60315168 71.23263529 -13.9756826 69.8296987 -10 67 C-5.93839798 62.52182342 -4.74361162 57.93966409 -5 52 C-6.72777148 46.71505194 -9.67146689 44.22337572 -14 41 C-16.52475462 39.73762269 -18.31200466 39.90143596 -21.125 39.9375 C-22.73375 39.958125 -24.3425 39.97875 -26 40 C-26 36.04 -26 32.08 -26 28 C-24.10314453 28.05220703 -24.10314453 28.05220703 -22.16796875 28.10546875 C-20.50782577 28.13360677 -18.84766844 28.16090691 -17.1875 28.1875 C-16.35412109 28.21263672 -15.52074219 28.23777344 -14.66210938 28.26367188 C-13.85966797 28.27333984 -13.05722656 28.28300781 -12.23046875 28.29296875 C-11.12288208 28.31653442 -11.12288208 28.31653442 -9.99291992 28.34057617 C-7.43009843 27.90260778 -6.54415803 27.05836725 -5 25 C-4.91975342 22.40110217 -4.91975342 22.40110217 -6 20 C-9.67347011 17.27512217 -13.88949009 17.77484695 -18.25 17.875 C-18.99507812 17.88402344 -19.74015625 17.89304688 -20.5078125 17.90234375 C-22.33868059 17.92581642 -24.16938238 17.96168475 -26 18 C-26.1953125 15.98177083 -26.390625 13.96354167 -26.5859375 11.9453125 C-26.86374749 9.77331755 -26.86374749 9.77331755 -29 8 C-32.77135706 7.65401458 -32.77135706 7.65401458 -34.75 9.0625 Z " fill="#F8AE22" transform="translate(266,190)"/>
<path d="M0 0 C1.09159424 0.00829834 2.18318848 0.01659668 3.30786133 0.02514648 C24.88557208 0.47458216 42.52397453 9.66574141 57.375 25.125 C71.33690011 41.33479101 76.89020223 61.24807346 75.6875 82.4375 C73.27245108 101.01626213 65.74978073 116.13454073 52.6875 129.4375 C52.01074219 130.13875 51.33398438 130.84 50.63671875 131.5625 C36.4783926 145.21421937 16.87906663 150.86942564 -2.44140625 150.64453125 C-23.05488235 149.54209509 -41.45603076 141.40696745 -55.734375 126.296875 C-71.77002286 107.40338891 -76.16592662 86.63961103 -74.3125 62.4375 C-72.05461496 43.58259193 -60.17844085 26.19238842 -45.5625 14.5625 C-31.80611835 4.86888392 -16.86561378 -0.16706442 0 0 Z M-49.625 35.25 C-59.46256513 48.34663579 -65.18052274 64.97193876 -63.3125 81.4375 C-60.10313752 100.25689775 -51.8294769 115.92845424 -36.3125 127.375 C-21.07789639 137.25106007 -4.83897315 140.33003347 13.015625 138.00390625 C29.69303179 134.41425051 43.22889187 124.44346678 53.1640625 110.80078125 C62.58227943 96.19047037 66.22601851 79.62697301 63.03125 62.4765625 C58.89050904 45.16398177 49.21840536 30.59780205 34.203125 20.89453125 C5.75264373 4.41622455 -28.29912437 10.03933488 -49.625 35.25 Z " fill="#F8AE22" transform="translate(234.3125,159.5625)"/>
<path d="M0 0 C2.7527505 1.29814634 5.13220513 2.73274267 7.546875 4.58203125 C8.21871826 5.09523926 8.89056152 5.60844727 9.58276367 6.13720703 C10.29795166 6.69005371 11.01313965 7.24290039 11.75 7.8125 C12.49934814 8.3885498 13.24869629 8.96459961 14.02075195 9.55810547 C19.81425795 14.03316487 25.51329962 18.61703299 31.17749023 23.25415039 C35.51628185 26.80504798 39.89446736 30.29827897 44.3125 33.75 C48.59755652 37.10736387 52.87965846 40.46748083 57.125 43.875 C58.39730469 44.89207031 58.39730469 44.89207031 59.6953125 45.9296875 C64.38595146 50.14331233 66.72459815 53.384745 67.1640625 59.65234375 C66.80797583 64.74777446 64.54070273 68.54992684 60.875 72 C55.83983743 73.75136089 50.44093689 74.1658788 45.5546875 71.83203125 C42.44350284 69.60092176 39.7900145 67.04293476 37.125 64.3125 C36.38830078 63.57483398 36.38830078 63.57483398 35.63671875 62.82226562 C32.21264071 59.35816589 29.00285358 55.73880049 25.8125 52.05981445 C22.77285612 48.60541313 19.60322149 45.2760186 16.4375 41.9375 C15.03364087 40.4507222 13.62999953 38.96373874 12.2265625 37.4765625 C11.5243457 36.7330957 10.82212891 35.98962891 10.09863281 35.22363281 C6.82954551 31.75983022 3.56816519 28.28891795 0.3125 24.8125 C-0.25090088 24.2136499 -0.81430176 23.6147998 -1.39477539 22.99780273 C-2.94278709 21.34320893 -4.47451071 19.67535481 -6 18 C-6.50740723 17.45520996 -7.01481445 16.91041992 -7.53759766 16.34912109 C-8.95703125 14.76171875 -8.95703125 14.76171875 -11 12 C-9.85996765 8.57990294 -8.77829802 7.71130558 -6.0625 5.4375 C-3.96656037 3.66869432 -1.94005112 1.94005112 0 0 Z " fill="#F1853D" transform="translate(336,328)"/>
<path d="M0 0 C1.8871875 0.061875 1.8871875 0.061875 3.8125 0.125 C3.8125 4.085 3.8125 8.045 3.8125 12.125 C-3.42647912 12.60759861 -3.42647912 12.60759861 -6.75 10.5 C-8.1875 8.125 -8.1875 8.125 -8.125 5 C-6.6730707 0.5474168 -4.345643 -0.1424801 0 0 Z " fill="#F8B120" transform="translate(226.1875,217.875)"/>
<path d="M0 0 C6.8359375 -0.1953125 6.8359375 -0.1953125 9 0 C11 2 11 2 11.3125 4.9375 C11 8 11 8 10 9.875 C6.74686316 11.70488947 3.68609891 11.18128355 0 11 C0 7.37 0 3.74 0 0 Z " fill="#F8AA25" transform="translate(240,240)"/>
</svg>
